<svg width="359" height="180" viewBox="0 0 359 180" fill="none" xmlns="http://www.w3.org/2000/svg">
<path opacity="0.2" d="M358.017 179.869C358.017 156.37 353.389 133.102 344.397 111.393C335.404 89.6831 322.224 69.9573 305.608 53.3415C288.992 36.7257 269.267 23.5454 247.557 14.553C225.847 5.56058 202.579 0.93225 179.081 0.932251C155.583 0.932252 132.314 5.56058 110.605 14.553C88.8954 23.5454 69.1696 36.7257 52.5538 53.3415C35.938 69.9573 22.7576 89.6831 13.7652 111.393C4.77285 133.102 0.144529 156.37 0.144531 179.869H63.7907C63.7907 164.729 66.7728 149.737 72.5666 135.749C78.3605 121.761 86.8527 109.052 97.5584 98.3462C108.264 87.6405 120.974 79.1482 134.961 73.3544C148.949 67.5605 163.941 64.5784 179.081 64.5784C194.221 64.5784 209.213 67.5605 223.201 73.3544C237.188 79.1482 249.898 87.6405 260.603 98.3461C271.309 109.052 279.801 121.761 285.595 135.749C291.389 149.737 294.371 164.729 294.371 179.869H358.017Z" fill="url(#paint0_radial_21_382)"/>
<defs>
<radialGradient id="paint0_radial_21_382" cx="0" cy="0" r="1" gradientUnits="userSpaceOnUse" gradientTransform="translate(179.081 184.279) rotate(-90) scale(194.688 174.081)">
<stop offset="0.698873" stop-color="#111111"/>
<stop offset="1" stop-color="#01FFB3" stop-opacity="0.8"/>
</radialGradient>
</defs>
</svg>
